<svg xmlns="http://www.w3.org/2000/svg" viewBox="0 0 16 16"><defs><style>.a{fill:#626667;}.b{fill:#e3e4e4;}.c{fill:#fefefe;}.d{fill:#fdfefe;}.e{fill:#f1f2f2;}.f{fill:#d1d2d2;}</style></defs><title>verify_silver</title><path class="a" d="M8,.39A7.64,7.64,0,1,1,.39,8,7.64,7.64,0,0,1,8,.39ZM6.72,9.51,5.09,7.89a1.14,1.14,0,0,0-.79-.38,1.17,1.17,0,0,0-1,.41,1.16,1.16,0,0,0-.18,1.71C4,10.54,5,11.42,5.84,12.31c.17.17.33.35.51.51a.66.66,0,0,0,.89,0l.51-.5.17-.19L13.14,6.9a1.17,1.17,0,0,0-.08-1.81A1.16,1.16,0,0,0,11.36,5L10,6.35,6.84,9.5Z"/><path class="b" d="M13.06,5.09a1.17,1.17,0,0,1,.08,1.81L7.92,12.12l-.17.19a.15.15,0,0,1-.12,0l-.82-.83c0-.07.06-.1.1-.14l.62-.63c.06-.06.15-.1.16-.2s.1-.06.15-.11C9.55,8.66,11.25,7,13,5.24,13,5.2,13.06,5.16,13.06,5.09Z"/><path class="c" d="M13.06,5.09c0,.07-.05.11-.1.15C11.25,7,9.55,8.66,7.84,10.36c0,.05-.08.11-.15.11-.25-.26-.5-.52-.76-.77a.24.24,0,0,1-.09-.2L10,6.35,11.36,5A1.16,1.16,0,0,1,13.06,5.09Z"/><path class="b" d="M5.84,12.31C5,11.42,4,10.54,3.16,9.63a1.16,1.16,0,0,1,.18-1.71c0,.08.06.12.11.17l2.28,2.27c0,.05.07.11.14.1.09.2.28.31.41.46s.36.3.47.52c-.21.21-.42.44-.64.65S6,12.28,5.84,12.31Z"/><path class="d" d="M5.87,10.46c-.07,0-.1-.05-.14-.1L3.45,8.09C3.4,8,3.34,8,3.34,7.92a1.17,1.17,0,0,1,1-.41,1.14,1.14,0,0,1,.79.38L6.72,9.51a.19.19,0,0,1-.09.18C6.38,10,6.13,10.21,5.87,10.46Z"/><path class="e" d="M5.87,10.46c.26-.25.51-.51.76-.77a.19.19,0,0,0,.09-.18h.12a.24.24,0,0,0,.09.2c.26.25.51.51.76.77,0,.1-.1.14-.16.2l-.62.63s-.1.07-.1.14H6.75c-.11-.22-.32-.34-.47-.52S6,10.66,5.87,10.46Z"/><path class="f" d="M6.75,11.44h.06l.82.83a.15.15,0,0,0,.12,0l-.51.5a.66.66,0,0,1-.89,0c-.18-.16-.34-.34-.51-.51.13,0,.19-.14.27-.22S6.54,11.65,6.75,11.44Z"/></svg>