<svg xmlns="http://www.w3.org/2000/svg" viewBox="0 0 15.27 15.28"><defs><style>.a{fill:#01947a;}.b{fill:#e3e4e4;}.c{fill:#fdfefe;}.d{fill:#f1f2f2;}.e{fill:#d1d2d2;}</style></defs><title>verify_green</title><path class="a" d="M8,15.67a7.64,7.64,0,1,1,7.65-7.62A7.64,7.64,0,0,1,8,15.67ZM6.75,9.56a.27.27,0,0,0-.07-.08L5.1,7.89a1.18,1.18,0,0,0-1.79.05,1.17,1.17,0,0,0-.1,1.75L4.52,11l1.32,1.3c.17.17.33.35.5.51a.65.65,0,0,0,.88,0c.17-.16.33-.34.5-.51l.11-.1,3.56-3.55,1.77-1.78a1.17,1.17,0,0,0-.09-1.79,1.18,1.18,0,0,0-1.76,0L6.89,9.46l-.08.1Z" transform="translate(-0.39 -0.39)"/><path class="b" d="M13.07,5.09a1.17,1.17,0,0,1,.09,1.79L11.39,8.66,7.83,12.21l-.11.1-.07,0c-.28-.29-.58-.55-.84-.85,0-.07.06-.1.09-.14l.7-.69s.09-.08.09-.14.1-.06.15-.11C9.55,8.66,11.25,7,13,5.24A.24.24,0,0,0,13.07,5.09Z" transform="translate(-0.39 -0.39)"/><path class="c" d="M13.07,5.09a.24.24,0,0,1-.11.15C11.25,7,9.55,8.66,7.84,10.36c0,.05-.08.11-.15.11l-.16-.17c-.24-.25-.5-.48-.72-.74l.08-.1L11.31,5A1.18,1.18,0,0,1,13.07,5.09Z" transform="translate(-0.39 -0.39)"/><path class="b" d="M5.84,12.31,4.52,11,3.21,9.69a1.17,1.17,0,0,1,.1-1.75l0,0L5.76,10.4s.06.07.11.07,0,.09.09.13l.7.7s.09.07.09.14c-.26.3-.56.56-.84.85Z" transform="translate(-0.39 -0.39)"/><path class="c" d="M5.87,10.47s-.08,0-.11-.07L3.35,8l0,0A1.18,1.18,0,0,1,5.1,7.89L6.68,9.48a.27.27,0,0,1,.07.08l-.12.14Z" transform="translate(-0.39 -0.39)"/><path class="d" d="M5.87,10.47l.76-.77.12-.14h.06c.22.26.48.49.72.74l.16.17c0,.06-.05.1-.09.14l-.7.69s-.09.07-.09.14H6.75c0-.07,0-.1-.09-.14L6,10.6S5.87,10.53,5.87,10.47Z" transform="translate(-0.39 -0.39)"/><path class="e" d="M6.75,11.44h.06c.26.3.56.56.84.85l.07,0c-.17.17-.33.35-.5.51a.65.65,0,0,1-.88,0c-.17-.16-.33-.34-.5-.51l.07,0C6.19,12,6.49,11.74,6.75,11.44Z" transform="translate(-0.39 -0.39)"/></svg>